<svg version="1.0" xmlns="http://www.w3.org/2000/svg" width="128" height="128" viewBox="0 0 96 96"><path d="M45.5 5.8c-.6.4-3.5 5.7-6.4 11.8l-5.4 11.2-10.1.1c-13.1 0-17 .9-17.4 4-.3 1.9 1.7 4.3 9.6 11.8l10.1 9.4-2.5 5.2c-1.3 2.9-2.4 5.8-2.4 6.5 0 .7-.9 3.2-2 5.4-4.9 10.1.5 16.6 10.3 12.4 1.8-.7 5.5-3.1 8.3-5.3 2.8-2.3 6.4-4.8 8.1-5.6 2.7-1.5 3.2-1.4 5.9.2 1.6 1 4.2 3 5.8 4.5 12.3 11.6 20.9 9.9 20.8-4.2 0-4.8-2-18.3-2.7-19.1-.3-.2 2.7-3.7 6.5-7.8 6.9-7.4 9.6-13.1 7.2-15.5-.5-.5-6.7-1-13.7-1.1-10.2-.2-12.9-.5-13.6-1.7-.4-.8-2.4-4.9-4.4-9-5.9-11.9-9-15.4-12-13.2z"/></svg>